<svg width="122" height="52" viewBox="0 0 122 52" fill="none" xmlns="http://www.w3.org/2000/svg">
<path d="M68.8698 0.686333C68.6668 0.982306 68.4455 1.10577 68.1837 1.19727C67.3319 1.49446 66.5504 1.63135 65.5531 1.75384C64.0289 1.94123 62.3872 2.25086 60.8866 2.57734C58.9671 2.99482 57.0832 3.55993 55.2136 4.16334C53.52 4.7099 51.8471 5.32478 50.204 6.00847C48.641 6.65898 47.1069 7.39 45.5985 8.1586C44.3136 8.81325 43.0541 9.51525 41.8165 10.2555C40.5463 11.0151 39.2987 11.8171 38.0804 12.6575C36.6854 13.6196 35.3371 14.6371 33.9934 15.6694C33.2143 16.268 32.4286 16.8662 31.6905 17.5146C31.1925 17.9523 31.2403 18.0218 30.5925 18.4601C30.096 18.7958 29.4894 18.748 28.9304 18.483C28.3711 18.218 27.4434 17.6671 27.4434 17.6671C27.4434 17.6671 28.5571 16.8345 29.4335 16.226C29.4174 16.2284 29.395 16.2392 29.3801 16.2411C28.823 16.318 28.1061 16.1103 27.5501 16.0276C27.2124 15.9774 26.8615 15.963 26.5206 15.9817C25.7791 16.023 25.053 16.1957 24.3246 16.3402C20.7354 17.0522 17.1478 17.8188 13.6345 18.8412C11.1032 19.5778 8.59782 20.4228 6.16952 21.4491C5.36188 21.7904 4.5435 22.1345 3.82102 22.631C3.1549 23.089 2.53245 23.6299 2.02908 24.2629C1.55401 24.8602 1.22607 25.5702 0.900576 26.2607C0.597039 26.9052 0.278863 27.5527 0.138074 28.2508C-0.081038 29.3376 0.0246142 30.4668 0.0312022 31.5753C0.0385222 32.7697 0.0741463 33.9704 0.191267 35.1592C0.311315 36.378 0.488703 37.4355 0.542139 38.6591C0.553363 38.9151 0.548971 39.3331 0.443075 39.5666C0.363287 39.7423 0.346451 39.7786 0.290575 39.9631C0.240311 40.1295 0.321319 40.3142 0.389639 40.474C0.553363 40.8566 0.812004 41.2016 1.10651 41.4959C1.25364 41.643 1.46617 41.7114 1.61745 41.8543C1.83778 42.063 1.96588 42.3577 2.18158 42.5712C2.63981 43.0241 3.14245 43.4484 3.71415 43.7453C4.52276 44.1653 5.43313 44.3685 6.32202 44.5688C7.27924 44.7845 8.26451 44.8924 9.24247 44.9729C9.92225 45.029 10.4996 45.102 11.286 45.0263C11.8484 45.0158 11.7591 45.0207 12.2695 45.0112C11.8528 43.8166 11.6215 42.528 11.6215 41.1911C11.6215 34.7969 16.8094 29.6162 23.2039 29.6162C29.5982 29.6162 34.7788 34.7966 34.7788 41.1911C34.7788 42.3689 34.6024 43.506 34.2757 44.5766C34.6415 44.5703 34.5707 44.5757 34.9618 44.5691C60.3698 44.2597 73.4888 43.8339 92.7519 43.5472C93.0903 43.5421 93.417 43.5311 93.7508 43.5243C93.5529 42.6761 93.4458 41.7943 93.4458 40.8861C93.4458 34.4919 98.6262 29.3112 105.021 29.3112C111.415 29.3112 116.603 34.4916 116.603 40.8861C116.603 41.2858 116.582 41.6789 116.542 42.0681C116.891 42.008 117.228 41.9009 117.549 41.7555C118.22 41.451 118.824 40.9955 119.394 40.5279C120.009 40.0236 120.566 39.4509 121.079 38.8429C121.402 38.4598 121.816 38.0987 121.948 37.6153C122.115 37.0051 121.828 37.1441 121.796 35.7167C121.744 33.4666 121.798 31.214 121.643 28.9687C121.582 28.0786 121.564 27.065 121.338 26.3076C121.259 26.0416 121.004 25.7815 120.827 25.568C120.664 25.3714 120.343 25.3343 120.316 25.08C120.214 24.1131 120.203 23.1029 120.156 22.114C120.126 21.4759 120.162 20.8359 120.11 20.2C120.104 20.2427 120.093 20.2879 120.08 20.3296C120.015 20.538 119.778 20.6475 119.676 20.8405C119.567 21.0455 119.508 21.2753 119.47 21.504C119.394 21.9497 119.396 22.4097 119.416 22.8611C119.437 23.3332 119.563 23.7929 119.599 24.2641C119.622 24.5615 119.743 24.8912 119.622 25.164C119.531 25.3684 119.318 25.5131 119.111 25.5985C118.708 25.7649 118.24 25.752 117.807 25.6976C117.361 25.6417 116.913 25.4943 116.526 25.263C115.766 24.8075 115.205 24.0787 114.582 23.4482C113.56 22.4141 112.524 21.382 111.646 20.2227C111.422 19.9267 111.123 19.643 111.059 19.2772C111.004 18.9593 111.071 18.595 111.257 18.3317C111.616 17.8261 112.284 17.6312 112.843 17.3633C113.505 17.0463 114.202 16.7762 114.917 16.6161C115.435 16.5002 115.972 16.4673 116.503 16.4636C117.017 16.4602 117.543 16.4527 118.036 16.5932C118.487 16.7216 118.954 16.9026 119.286 17.2337C119.331 17.2776 119.372 17.3281 119.408 17.3786C119.081 16.5998 118.589 15.9139 118.105 15.2207C118.011 15.1863 116.943 14.7903 116.351 14.6488C115.923 14.5465 115.123 14.5497 115.123 14.5497C115.123 14.5497 114.089 13.0501 113.514 12.3461C112.816 11.4904 112.078 10.6691 111.288 9.89857C110.426 9.05921 109.513 8.26377 108.55 7.5425C107.599 6.82929 105.561 5.59806 105.561 5.59806L107.239 4.767C106.989 4.49103 107.332 3.77538 107.071 3.45549C106.872 3.21271 106.541 3.21271 106.125 3.20393C105 3.17977 103.946 3.11902 102.824 3.04387C101.385 2.94749 99.9604 2.7213 98.5308 2.53293C97.1134 2.34602 95.7048 2.07128 94.2837 1.91536C91.344 1.5928 88.3926 1.39393 85.4387 1.25192C82.203 1.0965 78.9546 1.14847 75.7167 1.04599C74.506 1.00768 73.297 0.956929 72.0872 0.893489C71.0131 0.836149 69.9454 0.660957 68.8698 0.686333ZM77.3032 3.57627C77.3032 3.57627 79.6727 3.57969 80.8564 3.62971C82.5636 3.70169 84.2707 3.83687 85.9728 3.98815C87.7147 4.14309 89.4569 4.30632 91.1883 4.55227C92.4481 4.73137 93.7591 4.95487 94.9474 5.21571C95.2321 5.27817 95.6303 5.45825 95.6413 5.74958C95.7084 7.54201 95.7194 9.24806 95.7404 10.9956C95.7628 12.862 95.7633 16.5925 95.7633 16.5925C95.7633 16.5925 89.4396 16.643 86.2778 16.6993C82.8425 16.7606 75.9764 16.9509 75.9764 16.9509L77.3032 3.57627ZM71.7293 3.60677C71.7293 3.60677 70.9158 8.11981 70.4024 10.3549C69.8619 12.7082 68.5573 17.3623 68.5573 17.3623C68.5573 17.3623 64.7738 17.5241 62.8843 17.6673C59.3831 17.9325 55.8885 18.2924 52.3998 18.6892C51.0846 18.8387 48.6637 19.0247 48.6637 19.0247C48.6637 19.0247 48.6759 18.0653 48.5417 17.6141C48.4067 17.161 47.8782 16.3636 47.8782 16.3636L49.8912 8.25815C49.8912 8.25815 52.1563 7.27361 53.3224 6.87809C55.1319 6.26443 56.9838 5.78716 58.8429 5.34552C60.7195 4.89949 62.6159 4.50299 64.5235 4.21702C66.0148 3.99352 67.5191 3.87884 69.0223 3.75952C69.9244 3.68754 71.7293 3.60677 71.7293 3.60677ZM98.7065 6.18415C98.7065 6.18415 100.364 6.58553 101.162 6.87809C102.279 7.28752 103.383 7.75624 104.41 8.35722C105.694 9.10923 106.898 10.014 108.016 10.9954C108.778 11.6632 109.576 12.3327 110.113 13.1914C110.588 13.9507 110.345 13.9165 109.648 14.2435C108.197 14.9245 106.582 15.187 105.02 15.5474C103.526 15.8922 100.498 16.3634 100.498 16.3634L98.7065 6.18415ZM48.7169 8.76885C48.1749 10.9858 47.3954 13.3775 46.8488 15.5933C46.8488 15.5933 46.0055 15.3993 45.5983 15.4408C45.2486 15.4764 44.6081 15.6858 44.1419 15.9288C43.7351 16.1408 43.2459 16.4536 42.8914 16.7447C42.5092 17.0585 42.0708 17.618 41.8924 18.0792C41.6333 18.7485 41.8924 20.016 41.8924 20.016C41.8924 20.016 40.8798 20.1078 40.2303 20.1761C39.5842 20.2442 38.2858 20.3286 38.2858 20.3286C38.2858 20.3286 38.9163 17.7083 39.3609 16.4397C39.6615 15.5821 40.436 13.9312 40.436 13.9312C40.436 13.9312 41.3861 13.0054 41.9151 12.6043C42.9292 11.8362 44.0333 11.1869 45.1405 10.5608C46.302 9.90418 48.7169 8.76885 48.7169 8.76885ZM15.6853 20.9842C15.8663 20.9796 16.042 21.0003 16.1962 21.0911C16.3475 21.1802 16.4617 21.3812 16.4478 21.5562C16.4236 21.8587 16.0969 22.0571 15.8837 22.2731C15.1761 22.9887 14.323 23.5382 13.5352 24.1641C12.4325 25.04 11.3765 25.9816 10.2107 26.7719C9.70485 27.1148 9.19342 27.4637 8.62466 27.6869C8.12031 27.8848 7.57472 27.967 7.03865 28.0454C6.04118 28.1908 5.03468 28.265 4.02671 28.2513C3.66705 28.2464 3.25445 28.346 2.95164 28.1522C2.75205 28.0246 2.744 27.7172 2.59321 27.5347C2.36263 27.2551 2.06251 27.0313 1.76971 26.8178C1.60915 26.7007 1.29317 26.7085 1.25877 26.5128C1.15629 25.9279 1.97979 25.5646 2.38727 25.1327C2.76816 24.7292 3.09756 24.2131 3.61484 24.0118C3.85323 23.9191 4.12846 24.0706 4.37734 24.0118C5.00808 23.863 5.51975 23.3964 6.11584 23.1427C6.86492 22.8238 7.64548 22.5741 8.41848 22.3192C9.19684 22.0625 9.97666 21.7894 10.7745 21.6023C11.4812 21.4366 12.1968 21.3339 12.9171 21.2439C13.5281 21.1677 14.1471 21.117 14.7625 21.0914C15.0609 21.0787 15.3837 20.992 15.6853 20.9842ZM105.02 30.7594C99.4282 30.7594 94.894 35.2936 94.894 40.8854C94.894 46.4772 99.4282 51.0114 105.02 51.0114C110.612 51.0114 115.146 46.4772 115.146 40.8854C115.146 35.2936 110.612 30.7594 105.02 30.7594ZM23.2037 31.0644C17.6119 31.0644 13.0777 35.5986 13.0777 41.1904C13.0777 46.7822 17.6119 51.3164 23.2037 51.3164C28.7954 51.3164 33.3221 46.7822 33.3221 41.1904C33.3221 35.5986 28.7954 31.0644 23.2037 31.0644ZM105.02 33.5198C109.087 33.5198 112.386 36.8184 112.386 40.8857C112.386 44.9527 109.087 48.2515 105.02 48.2515C100.953 48.2515 97.6619 44.9527 97.6619 40.8857C97.6619 36.8184 100.953 33.5198 105.02 33.5198ZM23.2037 33.8248C27.2707 33.8248 30.5618 37.1234 30.5618 41.1907C30.5618 45.2577 27.2707 48.5565 23.2037 48.5565C19.1367 48.5565 15.8378 45.2577 15.8378 41.1907C15.8378 37.1234 19.1367 33.8248 23.2037 33.8248Z" fill="#AB967D"/>
</svg>
