<svg width="130" height="117" viewBox="0 0 130 117" fill="none" xmlns="http://www.w3.org/2000/svg">
<path d="M99.4531 55.3014V54.5133V52.7368V39.0568V39.0354H99.4318L76.9199 17.9838H46.7003V20.33V29.3176H12.1V30.7565V31.6439V98.8222H8.9397V100.29H14.072V99.5569H17.188V100.29H22.3204V99.5569H25.4364V100.29H30.5687V99.5569H33.6848V100.29H38.8171V99.5569H41.9331V100.29H47.0654V99.5569H49.1046H50.1815V100.29H55.3138V99.5569H58.4298V100.29H63.5621V99.5569H66.6782V100.29H71.8105V99.5569H74.9265V100.29H80.0573V99.5569H83.1749V100.29H88.3056V99.5569H91.4217V100.29H96.554V99.5569H99.4501V63.8583H95.5107V95.6206H52.2878V21.9231H75.9927L95.5138 40.0832V52.7017V54.4735V55.2633V56.0514H57.3422V62.3034H97.1054H99.4516H106.725V56.0927H99.4516V55.3014H99.4531ZM16.0394 34.8287H46.7003V95.6191H16.0394V34.8287Z" fill="#AB967D"/>
<path d="M40.1735 40.653H31.9327V53.8213H40.1735V40.653Z" fill="#AB967D"/>
<path d="M65.5845 81.3983H57.3423V84.2593H65.5845V81.3983Z" fill="#AB967D"/>
<path d="M89.181 66.2626H75.087V92.3869H89.181V66.2626Z" fill="#AB967D"/>
<path d="M29.2734 40.653H21.0311V53.8213H29.2734V40.653Z" fill="#AB967D"/>
<path d="M40.1536 55.7948H21.0311V58.6527H40.1536V55.7948Z" fill="#AB967D"/>
<path d="M40.1735 66.2626H31.9327V79.4294H40.1735V66.2626Z" fill="#AB967D"/>
<path d="M29.2734 66.2626H21.0311V79.4294H29.2734V66.2626Z" fill="#AB967D"/>
<path d="M40.1536 81.3983H21.0311V84.2593H40.1536V81.3983Z" fill="#AB967D"/>
<path d="M76.4662 31.6439H68.2255V44.8153H76.4662V31.6439Z" fill="#AB967D"/>
<path d="M65.5662 66.2626H57.3254V79.4294H65.5662V66.2626Z" fill="#AB967D"/>
<path d="M76.4662 46.7843H57.3423V49.6422H76.4662V46.7843Z" fill="#AB967D"/>
<path d="M65.5845 31.6439H57.3423V44.8153H65.5845V31.6439Z" fill="#AB967D"/>
<path d="M30.5687 10.7481H25.4364V12.216H30.5687V10.7481Z" fill="#AB967D"/>
<path d="M38.8171 10.7481H33.6848V12.216H38.8171V10.7481Z" fill="#AB967D"/>
<path d="M113.052 10.7481H107.92V12.216H113.052V10.7481Z" fill="#AB967D"/>
<path d="M22.3204 10.7481H17.1881V12.216H22.3204V10.7481Z" fill="#AB967D"/>
<path d="M63.5622 10.7481H58.4299V12.216H63.5622V10.7481Z" fill="#AB967D"/>
<path d="M71.8105 10.7481H66.6782V12.216H71.8105V10.7481Z" fill="#AB967D"/>
<path d="M55.3138 10.7481H50.1815V12.216H55.3138V10.7481Z" fill="#AB967D"/>
<path d="M80.0574 10.7481H74.9266V12.216H80.0574V10.7481Z" fill="#AB967D"/>
<path d="M129.549 10.7481H124.418V12.216H129.549V10.7481Z" fill="#AB967D"/>
<path d="M5.82371 10.7481H0.691406V12.216H5.82371V10.7481Z" fill="#AB967D"/>
<path d="M88.3072 10.7481H83.1764V12.216H88.3072V10.7481Z" fill="#AB967D"/>
<path d="M104.804 10.7481H99.6702V12.216H104.804V10.7481Z" fill="#AB967D"/>
<path d="M96.5555 10.7481H91.4232V12.216H96.5555V10.7481Z" fill="#AB967D"/>
<path d="M129.549 98.8222H124.418V100.29H129.549V98.8222Z" fill="#AB967D"/>
<path d="M113.052 98.8222H107.92V100.29H113.052V98.8222Z" fill="#AB967D"/>
<path d="M5.82371 98.8222H0.691406V100.29H5.82371V98.8222Z" fill="#AB967D"/>
<path d="M116.168 99.5905H115.247V104.726H116.714V100.29H121.301V98.8222H116.168V99.5905Z" fill="#AB967D"/>
<path d="M104.804 98.8222H99.6702V100.29H104.804V98.8222Z" fill="#AB967D"/>
<path d="M116.714 83.0953H115.247V88.2292H116.714V83.0953Z" fill="#AB967D"/>
<path d="M116.714 91.3437H115.247V96.476H116.714V91.3437Z" fill="#AB967D"/>
<path d="M116.714 12.216H121.301V10.7481H116.714V8.86017H115.247V13.9925H116.714V12.216Z" fill="#AB967D"/>
<path d="M116.714 25.3569H115.247V30.4892H116.714V25.3569Z" fill="#AB967D"/>
<path d="M116.714 33.6037H115.247V38.7375H116.714V33.6037Z" fill="#AB967D"/>
<path d="M116.714 41.8536H115.247V46.9874H116.714V41.8536Z" fill="#AB967D"/>
<path d="M116.714 66.5986H115.247V71.7309H116.714V66.5986Z" fill="#AB967D"/>
<path d="M116.714 0.611816H115.247V5.74565H116.714V0.611816Z" fill="#AB967D"/>
<path d="M116.714 107.84H115.247V112.898H116.714V107.84Z" fill="#AB967D"/>
<path d="M116.714 17.107H115.247V22.2408H116.714V17.107Z" fill="#AB967D"/>
<path d="M116.714 58.3488H115.247V63.4826H116.714V58.3488Z" fill="#AB967D"/>
<path d="M116.714 74.8455H115.247V79.9793H116.714V74.8455Z" fill="#AB967D"/>
<path d="M43.9433 15.9217C43.9433 16.3265 44.2717 16.6549 44.6764 16.6549C45.0812 16.6549 45.4096 16.3249 45.4096 15.9217V12.216H47.0639V10.7481H45.4096V2.08737C45.4096 1.68259 45.0812 1.35419 44.6764 1.35419C44.2717 1.35419 43.9433 1.68412 43.9433 2.08737V10.7481H41.9331V12.216H43.9433V15.9217Z" fill="#AB967D"/>
<path d="M12.1046 15.9217C12.1046 16.3265 12.433 16.6549 12.8378 16.6549C13.2426 16.6549 13.571 16.3249 13.571 15.9217V12.216H14.072V10.7481H13.571V2.08737C13.571 1.68259 13.2426 1.35419 12.8378 1.35419C12.433 1.35419 12.1046 1.68412 12.1046 2.08737V10.7481H8.9397V12.216H12.1046V15.9217Z" fill="#AB967D"/>
<path d="M109.921 55.0601V56.528H125.223V55.0601H116.714V50.1019H115.247V55.0601H109.921Z" fill="#AB967D"/>
<path d="M90.774 107.935C90.3692 107.935 90.0424 108.265 90.0424 108.668V111.428H75.5894V108.668C75.5894 108.264 75.261 107.935 74.8562 107.935C74.4515 107.935 74.123 108.265 74.123 108.668V115.652C74.123 116.057 74.4515 116.385 74.8562 116.385C75.261 116.385 75.5894 116.055 75.5894 115.652V112.895H90.0424V115.652C90.0424 116.057 90.3708 116.385 90.774 116.385C91.1803 116.385 91.5072 116.055 91.5072 115.652V108.668C91.5087 108.265 91.1803 107.935 90.774 107.935Z" fill="#AB967D"/>
</svg>
