<svg width="79" height="87" viewBox="0 0 79 87" fill="none" xmlns="http://www.w3.org/2000/svg">
<g clip-path="url(#clip0)">
<path d="M70.4965 51.7467C58.0012 66.8351 45.0328 58.2656 40.8005 54.7543C44.0631 51.1691 45.5621 49.2203 51.2268 44.5249C57.0835 46.9322 67.5634 42.3612 67.5634 42.3612C60.5131 44.2195 55.1235 43.1659 53.2093 42.6561C53.6202 42.3333 60.5754 37.2699 62.6807 34.3415C68.5028 34.5225 73.312 29.493 73.312 29.493C73.1546 29.3573 70.2094 31.628 64.6407 31.9003C70.4066 23.3813 70.1479 15.5426 70.1479 15.5426C70.1479 15.5426 68.0193 22.6966 62.602 30.5405C61.4922 24.9734 62.9064 21.1836 62.7482 21.0592C62.7482 21.0592 58.9752 27.3119 60.7146 33.0609C57.753 36.4652 53.0848 39.4049 51.3617 40.7238C51.2268 40.3671 49.4251 34.4259 51.1758 25.652C51.1758 25.652 46.4288 36.6853 49.4017 42.4055C45.7645 45.2209 44.7897 45.9116 38.7142 52.742C24.9569 42.3829 36.7689 23.8554 47.0706 19.5393C57.6691 15.0945 62.0839 15.9897 71.7974 0C82.4348 15.8479 80.6902 39.4441 70.4965 51.7467Z" fill="#AB967D"/>
<path d="M11.7834 50.1372C18.0423 53.0152 22.381 56.9232 25.3626 60.6616C25.3989 60.5537 25.4447 60.4633 25.4785 60.3388C31.1431 39.8295 0 42.6839 0 42.6839C0 42.6839 4.30234 49.3446 6.7009 56.6065C9.47485 65.0229 20.8102 72.0177 24.8842 62.0214C21.9425 58.0386 17.7353 53.6833 11.7834 50.1372Z" fill="#AB967D"/>
<path d="M40.8005 54.7543C40.7642 54.7082 38.6494 52.8055 38.6831 52.7603C33.3445 58.6736 31.2634 63.7257 30.7565 70.1655C29.9487 67.9513 28.3329 64.4052 25.3617 60.6616C25.2208 61.154 25.0573 61.596 24.8834 62.0205C28.0483 66.3079 29.2731 72.1482 29.9936 74.0622C29.9936 79.4092 30.5766 82.0827 31.0437 86.5458C31.0437 86.5458 33.905 88.2449 34.7017 85.0738C33.0859 82.3881 31.5004 63.9067 40.8005 54.7543Z" fill="#AB967D"/>
</g>
<defs>
<clipPath id="clip0">
<rect width="79" height="87" fill="white"/>
</clipPath>
</defs>
</svg>
